<?xml version="1.0" encoding="utf-8"?>
<!-- Generator: Adobe Illustrator 25.0.0, SVG Export Plug-In . SVG Version: 6.00 Build 0)  -->
<svg version="1.1" id="Layer_1" xmlns="http://www.w3.org/2000/svg" xmlns:xlink="http://www.w3.org/1999/xlink" x="0px" y="0px"
	 viewBox="0 0 1920 1080" style="enable-background:new 0 0 1920 1080;" xml:space="preserve">
<style type="text/css">
	.st0{fill:#FFFFFF;}
</style>
<path class="st0" d="M285.97,780.51L285.97,780.51c-37.23,0-67.4-30.18-67.4-67.4V366.89c0-37.23,30.18-67.4,67.4-67.4h0
	c37.23,0,67.4,30.18,67.4,67.4v346.21C353.37,750.33,323.19,780.51,285.97,780.51z"/>
<path class="st0" d="M445.28,737.62L445.28,737.62c-37.23,0-67.4-30.18-67.4-67.4v-168.3c0-37.23,30.18-67.4,67.4-67.4h0
	c37.23,0,67.4,30.18,67.4,67.4v168.3C512.69,707.44,482.51,737.62,445.28,737.62z"/>
<path class="st0" d="M595.41,633.66L595.41,633.66c-37.23,0-67.4-30.18-67.4-67.4V366.89c0-37.23,30.18-67.4,67.4-67.4h0
	c37.23,0,67.4,30.18,67.4,67.4v199.36C662.82,603.48,632.64,633.66,595.41,633.66z"/>
<g>
	<path class="st0" d="M756.74,630.42V459.45h65.06c12.7,0,23.6,2.28,32.7,6.83c9.1,4.55,16.08,10.96,20.94,19.22
		c4.86,8.26,7.29,17.94,7.29,29.03c0,11.17-2.49,20.88-7.46,29.15c-4.97,8.26-12.05,14.67-21.23,19.22
		c-9.18,4.55-20.12,6.83-32.82,6.83H774.3v-25.7h45.21c7.04,0,13-1.22,17.9-3.67c4.89-2.45,8.64-5.87,11.25-10.27
		c2.6-4.4,3.9-9.58,3.9-15.55s-1.3-11.13-3.9-15.49c-2.6-4.36-6.35-7.75-11.25-10.15c-4.9-2.41-10.86-3.61-17.9-3.61h-32.24v145.15
		H756.74z"/>
	<path class="st0" d="M946.65,632.72c-8.49,0-16.01-1.86-22.55-5.57c-6.54-3.71-11.65-9.14-15.32-16.29
		c-3.67-7.15-5.51-15.89-5.51-26.22v-76.99h29.26v72.4c0,8.8,2.16,15.53,6.48,20.2c4.32,4.67,10.34,7,18.07,7
		c5.12,0,9.7-1.05,13.71-3.16c4.02-2.1,7.19-5.35,9.52-9.75c2.33-4.4,3.5-9.96,3.5-16.7v-70h29.15v122.78h-28.46l-0.11-30.98h4.93
		c-3.83,10.79-9.28,19.03-16.35,24.73C965.9,629.87,957.13,632.72,946.65,632.72z"/>
	<path class="st0" d="M1069.2,459.45v170.97h-29.26V459.45H1069.2z"/>
	<path class="st0" d="M1125.31,459.45v170.97h-29.26V459.45H1125.31z"/>
	<path class="st0" d="M1153.53,630.42V459.45h66.09c12.09,0,22.32,1.88,30.69,5.62c8.38,3.75,14.75,8.93,19.11,15.55
		c4.36,6.62,6.54,14.36,6.54,23.24c0,6.66-1.22,12.47-3.67,17.44c-2.45,4.97-5.89,9.1-10.33,12.39c-4.44,3.29-9.68,5.74-15.72,7.34
		v0.57c6.66,0.69,12.72,2.72,18.19,6.08c5.47,3.37,9.85,7.98,13.14,13.83c3.29,5.85,4.93,12.91,4.93,21.17
		c0,9.41-2.24,17.71-6.71,24.9c-4.48,7.19-11.15,12.79-20.02,16.81c-8.88,4.02-19.93,6.02-33.16,6.02H1153.53z M1183.6,531.97h34.08
		c5.66,0,10.59-0.98,14.8-2.93c4.21-1.95,7.46-4.72,9.75-8.32c2.29-3.59,3.44-7.88,3.44-12.85c0-7.11-2.45-12.83-7.34-17.15
		c-4.9-4.32-11.74-6.48-20.54-6.48h-34.19V531.97z M1183.6,605.52h35.46c10.56,0,18.61-2.12,24.15-6.37
		c5.55-4.25,8.32-10.19,8.32-17.84c0-5.28-1.26-9.85-3.79-13.71c-2.52-3.86-6.14-6.87-10.84-9.01c-4.7-2.14-10.38-3.21-17.04-3.21
		h-36.26V605.52z"/>
	<path class="st0" d="M1358.47,633.18c-11.93,0-22.43-2.68-31.5-8.03c-9.06-5.35-16.1-12.83-21.11-22.43
		c-5.01-9.6-7.52-20.75-7.52-33.45c0-12.7,2.5-23.87,7.52-33.51c5.01-9.64,12.05-17.15,21.11-22.55c9.07-5.39,19.56-8.09,31.5-8.09
		c12.09,0,22.62,2.7,31.61,8.09c8.99,5.39,15.99,12.91,21,22.55c5.01,9.64,7.52,20.81,7.52,33.51c0,12.7-2.51,23.85-7.52,33.45
		c-5.01,9.6-12.01,17.08-21,22.43C1381.09,630.5,1370.56,633.18,1358.47,633.18z M1358.47,608.97c6.43,0,11.91-1.64,16.47-4.93
		c4.55-3.29,8.05-7.92,10.5-13.88c2.45-5.97,3.67-12.93,3.67-20.88c0-8.03-1.22-15.03-3.67-21c-2.45-5.97-5.95-10.61-10.5-13.94
		c-4.55-3.33-10.04-4.99-16.47-4.99c-6.27,0-11.7,1.66-16.29,4.99c-4.59,3.33-8.11,7.97-10.56,13.94c-2.45,5.97-3.67,12.97-3.67,21
		s1.22,15.01,3.67,20.94c2.45,5.93,5.95,10.54,10.5,13.83C1346.67,607.32,1352.12,608.97,1358.47,608.97z"/>
	<path class="st0" d="M1476.77,632.49c-8.11,0-15.32-1.38-21.63-4.13c-6.31-2.75-11.3-6.87-14.97-12.33
		c-3.67-5.47-5.51-12.26-5.51-20.37c0-6.96,1.3-12.72,3.9-17.27c2.6-4.55,6.14-8.19,10.61-10.9c4.48-2.71,9.6-4.78,15.38-6.2
		c5.78-1.42,11.76-2.43,17.96-3.04c7.5-0.84,13.46-1.59,17.9-2.24c4.44-0.65,7.65-1.62,9.64-2.93c1.99-1.3,2.98-3.33,2.98-6.08v-0.8
		c0-3.67-0.88-6.87-2.64-9.58c-1.76-2.71-4.29-4.84-7.57-6.37c-3.29-1.53-7.31-2.29-12.05-2.29c-4.74,0-8.89,0.77-12.45,2.29
		c-3.56,1.53-6.41,3.6-8.55,6.2c-2.14,2.6-3.44,5.55-3.9,8.84l-27.77-1.26c0.92-7.95,3.65-14.8,8.2-20.54
		c4.55-5.74,10.65-10.19,18.3-13.37c7.65-3.17,16.52-4.76,26.62-4.76c7.5,0,14.34,0.9,20.54,2.7c6.2,1.8,11.55,4.46,16.06,7.98
		c4.51,3.52,7.99,7.88,10.44,13.08c2.45,5.2,3.67,11.21,3.67,18.02v83.31h-28.46v-17.21h-0.69c-1.84,3.6-4.32,6.87-7.46,9.81
		c-3.14,2.95-7.04,5.26-11.7,6.94C1488.97,631.65,1483.35,632.49,1476.77,632.49z M1484,610.92c6.27,0,11.57-1.17,15.89-3.5
		c4.32-2.33,7.61-5.43,9.87-9.29c2.26-3.86,3.39-8.13,3.39-12.79v-13.65c-0.92,0.69-2.31,1.3-4.19,1.84
		c-1.88,0.54-4.07,1.05-6.6,1.55c-2.52,0.5-5.18,0.98-7.98,1.43c-2.79,0.46-5.56,0.88-8.32,1.26c-4.21,0.61-8.05,1.59-11.53,2.93
		c-3.48,1.34-6.27,3.19-8.38,5.56c-2.1,2.37-3.16,5.43-3.16,9.18c0,3.21,0.88,5.99,2.64,8.32c1.76,2.33,4.21,4.11,7.34,5.34
		C1476.12,610.31,1479.79,610.92,1484,610.92z"/>
	<path class="st0" d="M1568.8,630.42V507.65h28.23v20.42h0.57c2.22-7.04,5.81-12.41,10.79-16.12c4.97-3.71,11.36-5.56,19.16-5.56
		c1.84,0,3.62,0.06,5.34,0.17c1.72,0.11,3.16,0.25,4.3,0.4v26.05c-1.07-0.23-2.93-0.46-5.56-0.69c-2.64-0.23-5.34-0.34-8.09-0.34
		c-4.82,0-9.16,1.07-13.02,3.21c-3.86,2.14-6.91,5.32-9.12,9.52c-2.22,4.21-3.33,9.41-3.33,15.61v70.11H1568.8z"/>
	<path class="st0" d="M1701.68,632.83c-10.48,0-19.66-2.64-27.54-7.92c-7.88-5.28-14.04-12.7-18.47-22.26
		c-4.44-9.56-6.66-20.77-6.66-33.62s2.24-24.04,6.71-33.56c4.47-9.52,10.67-16.93,18.59-22.2c7.92-5.28,16.96-7.92,27.14-7.92
		c5.81,0,11.03,0.84,15.66,2.52c4.63,1.68,8.68,4.06,12.16,7.11c3.48,3.06,6.37,6.66,8.66,10.79h0.46v-66.32h29.26v170.97h-28.8
		v-18.93h-0.57c-2.29,4.36-5.2,8.13-8.72,11.3c-3.52,3.17-7.61,5.64-12.28,7.4C1712.61,631.95,1707.41,632.83,1701.68,632.83z
		 M1708.79,608.62c6.35,0,11.84-1.64,16.47-4.93c4.63-3.29,8.2-7.9,10.73-13.83c2.52-5.93,3.79-12.87,3.79-20.83
		c0-8.03-1.26-14.99-3.79-20.88c-2.52-5.89-6.1-10.46-10.73-13.71c-4.63-3.25-10.12-4.88-16.47-4.88c-6.12,0-11.44,1.57-15.95,4.7
		c-4.51,3.14-8.01,7.63-10.5,13.48c-2.49,5.85-3.73,12.95-3.73,21.29c0,8.26,1.24,15.34,3.73,21.23c2.48,5.89,5.98,10.42,10.5,13.6
		C1697.35,607.04,1702.67,608.62,1708.79,608.62z"/>
</g>
</svg>
